<svg width="340" height="240" xmlns="http://www.w3.org/2000/svg">
 <!-- Created with SVG-edit - http://svg-edit.googlecode.com/ -->
 <g>
  <title>Layer 1</title>
  <path fill="#007fff" stroke="#ffffff" stroke-width="6" stroke-linejoin="null" stroke-linecap="null" d="m9,8l31.037292,0l0,0l46.555984,0l108.630539,0l0,72.420349l0,0l0,31.037323l0,20.691513l-108.630539,0l-77.291855,60.850815l30.73587,-60.850815l-31.037292,0l0,-20.691513l0,-31.037323l0,0l0,-72.420349z" id="svg_5" opacity="1"/>
  <path fill="#ffffaa" stroke="#000000" stroke-width="5" stroke-linejoin="null" stroke-linecap="null" d="m137.746002,50.639999l30.792053,0l46.189728,0l107.772217,0l0,66.940002l0,28.688004l0,19.125l-107.772217,0l-76.682755,56.246994l30.493027,-56.246994l-30.792053,0l0,-19.125l0,-28.688004l0,-66.940002z" id="svg_6" opacity="0.9"/>
 </g>
</svg>